<svg width="50" height="50" viewBox="0 0 50 50" fill="none" xmlns="http://www.w3.org/2000/svg">
<path d="M1 25C1 19.8759 1.27586 15.8266 1.98732 12.6253C2.69624 9.43545 3.82431 7.14928 5.48679 5.48679C7.14928 3.82431 9.43545 2.69624 12.6253 1.98732C15.8266 1.27586 19.8759 1 25 1C30.1241 1 34.1734 1.27586 37.3747 1.98732C40.5646 2.69624 42.8507 3.82431 44.5132 5.48679C46.1757 7.14928 47.3038 9.43545 48.0127 12.6253C48.7241 15.8266 49 19.8759 49 25C49 30.1241 48.7241 34.1734 48.0127 37.3747C47.3038 40.5646 46.1757 42.8507 44.5132 44.5132C42.8507 46.1757 40.5646 47.3038 37.3747 48.0127C34.1734 48.7241 30.1241 49 25 49C19.8759 49 15.8266 48.7241 12.6253 48.0127C9.43545 47.3038 7.14928 46.1757 5.48679 44.5132C3.82431 42.8507 2.69624 40.5646 1.98732 37.3747C1.27586 34.1734 1 30.1241 1 25Z" stroke="#570A57" stroke-width="2"/>
<path fill-rule="evenodd" clip-rule="evenodd" d="M25.959 33.6818L18.3502 26.7682C17.8833 26.3439 17.8833 25.6561 18.3502 25.2318L25.959 18.3182C26.4259 17.8939 27.1829 17.8939 27.6498 18.3182C28.1167 18.7424 28.1167 19.4303 27.6498 19.8546L20.8864 26L27.6498 32.1454C28.1167 32.5697 28.1167 33.2576 27.6498 33.6818C27.1829 34.1061 26.4259 34.1061 25.959 33.6818Z" fill="white"/>
</svg>
