<svg width="31" height="28" viewBox="0 0 31 28" fill="none" xmlns="http://www.w3.org/2000/svg">
<path d="M29.654 15.5C30.3974 15.5 31.0061 14.8962 30.9416 14.1557C30.7495 11.9486 30.0858 9.80278 28.9895 7.86564C27.6716 5.53704 25.7734 3.58924 23.4796 2.21179C21.1857 0.834329 18.5743 0.074126 15.8996 0.00515104C13.2248 -0.0638239 10.5777 0.560779 8.21592 1.81818C5.85412 3.07558 3.85804 4.92296 2.42191 7.18054C0.985773 9.43812 0.158505 12.029 0.0206007 14.7011C-0.117303 17.3732 0.438854 20.0355 1.63495 22.429C2.62997 24.42 4.03967 26.1686 5.76346 27.5603C6.34187 28.0272 7.18262 27.8593 7.59766 27.2426V27.2426C8.01269 26.6259 7.84373 25.7946 7.27394 25.3172C5.93149 24.1923 4.8302 22.8008 4.04301 21.2255C3.05465 19.2478 2.59508 17.0479 2.70903 14.8399C2.82299 12.6319 3.50658 10.4909 4.69328 8.62545C5.87999 6.75996 7.5294 5.23343 9.48101 4.19441C11.4326 3.15539 13.62 2.63927 15.8302 2.69627C18.0404 2.75326 20.1982 3.38144 22.0937 4.51966C23.9891 5.65788 25.5577 7.26739 26.6467 9.19156C27.514 10.7241 28.0536 12.4147 28.2373 14.1564C28.3153 14.8957 28.9106 15.5 29.654 15.5V15.5Z" fill="#A91079"/>
</svg>
